<svg width="100" height="24" viewBox="0 0 100 24" fill="none" xmlns="http://www.w3.org/2000/svg">
<path d="M12.5259 7.82872C12.5259 5.23451 10.4229 3.13149 7.82872 3.13149C5.23451 3.13149 3.13149 5.23451 3.13149 7.82872C3.13149 10.4229 5.23451 12.5259 7.82872 12.5259C10.4229 12.5259 12.5259 10.4229 12.5259 7.82872ZM15.6574 7.82872C15.6574 12.1524 12.1524 15.6574 7.82872 15.6574C3.50504 15.6574 0 12.1524 0 7.82872C0 3.50504 3.50504 0 7.82872 0C12.1524 0 15.6574 3.50504 15.6574 7.82872Z" fill="#1F6F43"/>
<path d="M16.8941 9.75519C17.1963 8.94524 18.0982 8.5337 18.9083 8.83572C20.1415 9.29555 21.2389 10.0587 22.099 11.0549C22.9591 12.0512 23.5539 13.2488 23.8288 14.536C24.1037 15.8232 24.0499 17.1591 23.6718 18.4198C23.2936 19.6806 22.6038 20.8265 21.6657 21.75C20.7277 22.6735 19.5715 23.3457 18.3049 23.7042C17.0384 24.0626 15.7018 24.0959 14.4191 23.801C13.1362 23.5061 11.9483 22.8917 10.9655 22.0161C9.98266 21.1405 9.23677 20.0312 8.79626 18.7908C8.50687 17.976 8.93249 17.0813 9.74732 16.7919C10.5621 16.5025 11.4568 16.9282 11.7463 17.7429C12.0106 18.4872 12.4583 19.1533 13.048 19.6787C13.6377 20.204 14.3507 20.5721 15.1204 20.749C15.8901 20.926 16.6927 20.906 17.4527 20.6909C18.2125 20.4758 18.9062 20.0727 19.469 19.5187C20.0317 18.9646 20.4449 18.2771 20.6718 17.5207C20.8987 16.7643 20.9315 15.9628 20.7666 15.1904C20.6017 14.4182 20.2449 13.6996 19.7289 13.1018C19.2128 12.5039 18.5536 12.0454 17.8135 11.7695C17.0036 11.4672 16.5921 10.5653 16.8941 9.75519Z" fill="#1F6F43"/>
<path d="M6.78489 9.91637V6.78489C6.2084 6.78489 5.74106 6.31755 5.74106 5.74106C5.74106 5.16457 6.2084 4.69723 6.78489 4.69723H7.82872L7.93575 4.70233C8.46197 4.75591 8.87254 5.20069 8.87254 5.74106V9.91637C8.87254 10.4929 8.40521 10.9602 7.82872 10.9602C7.25222 10.9602 6.78489 10.4929 6.78489 9.91637Z" fill="#1F6F43"/>
<path d="M16.1877 13.2233C16.5982 12.8186 17.259 12.8231 17.6637 13.2335L18.3946 13.9746C18.7972 14.383 18.7949 15.0399 18.3895 15.4455L15.4456 18.3895C15.038 18.7969 14.3771 18.7969 13.9695 18.3895C13.5619 17.9819 13.562 17.3211 13.9695 16.9134L16.1795 14.7024L16.1775 14.6994C15.7728 14.2889 15.7772 13.6281 16.1877 13.2233Z" fill="#1F6F43"/>
<path d="M93.6292 18.9571C93.4552 18.9571 93.3682 18.8701 93.3682 18.6961V14.6252L90.5708 11.8381C90.5221 11.7825 90.4908 11.7338 90.4768 11.692C90.4699 11.6433 90.4664 11.5876 90.4664 11.525V5.30377C90.4664 5.1298 90.5534 5.04282 90.7274 5.04282H93.6814C93.8554 5.04282 93.9423 5.1298 93.9423 5.30377V11.6189H96.2805V5.30377C96.2805 5.1298 96.3675 5.04282 96.5415 5.04282H99.4955C99.6695 5.04282 99.7565 5.1298 99.7565 5.30377V11.525C99.7565 11.5876 99.753 11.6433 99.746 11.692C99.7391 11.7338 99.7078 11.7825 99.6521 11.8381L96.8651 14.6252V18.6961C96.8651 18.8701 96.7781 18.9571 96.6041 18.9571H93.6292Z" fill="#1F6F43"/>
<path d="M86.0223 18.9571C85.8622 18.9571 85.7231 18.9118 85.6048 18.8214L83.9033 17.2661L82.181 15.0218C82.1045 14.9244 82.0557 14.8652 82.0349 14.8444C82.014 14.8165 82.0036 14.7539 82.0036 14.6565V9.33295C82.0036 9.23553 82.014 9.1729 82.0349 9.14506C82.0627 9.11723 82.1114 9.05808 82.181 8.96761L83.7781 6.90083L85.6048 5.17851C85.6813 5.11588 85.7405 5.07761 85.7822 5.06369C85.8309 5.04978 85.911 5.04282 86.0223 5.04282H88.6006C88.7745 5.04282 88.8615 5.1298 88.8615 5.30377V6.9739C88.8615 7.02957 88.8546 7.08872 88.8406 7.15135C88.8337 7.20702 88.7989 7.25573 88.7363 7.29749L86.7739 8.64403L85.4899 10.2933V13.7066L86.7947 15.3558L88.7363 16.6919C88.7919 16.7267 88.8267 16.7685 88.8406 16.8172C88.8546 16.8659 88.8615 16.9181 88.8615 16.9738V18.6961C88.8615 18.8701 88.7745 18.9571 88.6006 18.9571H86.0223Z" fill="#1F6F43"/>
<path d="M70.9615 18.9571C70.7875 18.9571 70.7005 18.8701 70.7005 18.6961V5.30377C70.7005 5.1298 70.7875 5.04282 70.9615 5.04282H76.8904C77.0574 5.04282 77.1966 5.09849 77.3079 5.20983L79.3956 7.29749C79.5139 7.41579 79.5731 7.55496 79.5731 7.71502V18.6961C79.5731 18.8701 79.4861 18.9571 79.3121 18.9571H76.3581C76.1841 18.9571 76.0971 18.8701 76.0971 18.6961V7.8194H74.1765V18.6961C74.1765 18.8701 74.0895 18.9571 73.9155 18.9571H70.9615Z" fill="#1F6F43"/>
<path d="M59.2269 18.9571C59.0529 18.9571 58.9659 18.8701 58.9659 18.6961V9.0198C58.9659 8.92934 59.0007 8.82496 59.0703 8.70666L61.5442 5.19939C61.6207 5.09501 61.7321 5.04282 61.8782 5.04282H65.3333C65.4864 5.04282 65.5977 5.09501 65.6673 5.19939L68.1516 8.70666C68.2212 8.80408 68.256 8.90846 68.256 9.0198V18.6961C68.256 18.8701 68.169 18.9571 67.995 18.9571H65.041C64.867 18.9571 64.7801 18.8701 64.7801 18.6961V14.2598H62.4523V18.6961C62.4523 18.8701 62.3653 18.9571 62.1914 18.9571H59.2269ZM63.611 12.0156C64.2512 12.0156 64.6826 11.8764 64.9053 11.5981C65.135 11.3127 65.2498 10.7734 65.2498 9.98013C65.2498 9.18682 65.135 8.65098 64.9053 8.37263C64.6826 8.08732 64.2512 7.94466 63.611 7.94466C62.9777 7.94466 62.5463 8.08732 62.3166 8.37263C62.0939 8.65098 61.9826 9.18682 61.9826 9.98013C61.9826 10.7734 62.0939 11.3127 62.3166 11.5981C62.5463 11.8764 62.9777 12.0156 63.611 12.0156Z" fill="#1F6F43"/>
<path d="M47.9239 18.9571C47.7499 18.9571 47.6629 18.8701 47.6629 18.6961V5.30377C47.6629 5.1298 47.7499 5.04282 47.9239 5.04282H53.8528C54.0198 5.04282 54.159 5.09849 54.2703 5.20983L56.358 7.29749C56.4763 7.41579 56.5354 7.55496 56.5354 7.71502V18.6961C56.5354 18.8701 56.4485 18.9571 56.2745 18.9571H53.3204C53.1465 18.9571 53.0595 18.8701 53.0595 18.6961V7.8194H51.1388V18.6961C51.1388 18.8701 51.0519 18.9571 50.8779 18.9571H47.9239Z" fill="#1F6F43"/>
<path d="M41.9504 18.9571C41.7764 18.9571 41.6894 18.8701 41.6894 18.6961V5.30377C41.6894 5.1298 41.7764 5.04282 41.9504 5.04282H44.9044C45.0784 5.04282 45.1654 5.1298 45.1654 5.30377V18.6961C45.1654 18.8701 45.0784 18.9571 44.9044 18.9571H41.9504Z" fill="#1F6F43"/>
<path d="M32.613 18.9571C32.439 18.9571 32.3521 18.8701 32.3521 18.6961V5.30377C32.3521 5.1298 32.439 5.04282 32.613 5.04282H39.7632C39.9372 5.04282 40.0242 5.1298 40.0242 5.30377V7.55844C40.0242 7.73242 39.9372 7.8194 39.7632 7.8194H35.828V11.3058H39.2413C39.4153 11.3058 39.5023 11.3928 39.5023 11.5667V13.8214C39.5023 13.9954 39.4153 14.0824 39.2413 14.0824H35.828V18.6961C35.828 18.8701 35.741 18.9571 35.567 18.9571H32.613Z" fill="#1F6F43"/>
</svg>
